<?xml version="1.0" encoding="UTF-8" standalone="no"?>
<!-- Created with Inkscape (http://www.inkscape.org/) -->
<svg
   xmlns:dc="http://purl.org/dc/elements/1.1/"
   xmlns:cc="http://web.resource.org/cc/"
   xmlns:rdf="http://www.w3.org/1999/02/22-rdf-syntax-ns#"
   xmlns:svg="http://www.w3.org/2000/svg"
   xmlns="http://www.w3.org/2000/svg"
   xmlns:xlink="http://www.w3.org/1999/xlink"
   xmlns:sodipodi="http://sodipodi.sourceforge.net/DTD/sodipodi-0.dtd"
   xmlns:inkscape="http://www.inkscape.org/namespaces/inkscape"
   width="744.09448819"
   height="1052.3622047"
   id="svg2"
   sodipodi:version="0.32"
   inkscape:version="0.45.1"
   sodipodi:docbase="C:\dev\projects\4EV_Entry\graphics"
   sodipodi:docname="pegasus_pony.svg"
   inkscape:output_extension="org.inkscape.output.svg.inkscape"
   inkscape:export-filename="C:\dev\projects\4EV_Entry\graphics\pegasus_pony.png"
   inkscape:export-xdpi="30.959999"
   inkscape:export-ydpi="30.959999">
  <defs
     id="defs4">
    <linearGradient
       id="linearGradient3155">
      <stop
         style="stop-color:#020202;stop-opacity:1;"
         offset="0"
         id="stop3157" />
      <stop
         id="stop3169"
         offset="0.25"
         style="stop-color:#ffffff;stop-opacity:1;" />
      <stop
         style="stop-color:#ffffff;stop-opacity:1;"
         offset="0.375"
         id="stop3171" />
      <stop
         id="stop3173"
         offset="0.4375"
         style="stop-color:#ffffff;stop-opacity:1;" />
      <stop
         style="stop-color:#ffffff;stop-opacity:1;"
         offset="0.46875"
         id="stop3175" />
      <stop
         style="stop-color:#fefefe;stop-opacity:1;"
         offset="0.49999237"
         id="stop3199" />
      <stop
         style="stop-color:#ffffff;stop-opacity:1;"
         offset="1"
         id="stop3159" />
    </linearGradient>
    <radialGradient
       inkscape:collect="always"
       xlink:href="#linearGradient3155"
       id="radialGradient3161"
       cx="220.42"
       cy="280.46075"
       fx="220.42"
       fy="280.46075"
       r="5.7666712"
       gradientTransform="matrix(2.1608817,0.6560334,-0.3491018,1.149892,-158.12577,-186.72443)"
       gradientUnits="userSpaceOnUse" />
  </defs>
  <sodipodi:namedview
     id="base"
     pagecolor="#ffffff"
     bordercolor="#666666"
     borderopacity="1.0"
     gridtolerance="10000"
     guidetolerance="10"
     objecttolerance="10"
     inkscape:pageopacity="0.0"
     inkscape:pageshadow="2"
     inkscape:zoom="3.959798"
     inkscape:cx="244.4413"
     inkscape:cy="722.0725"
     inkscape:document-units="px"
     inkscape:current-layer="g14003"
     inkscape:window-width="1024"
     inkscape:window-height="720"
     inkscape:window-x="0"
     inkscape:window-y="20"
     showguides="true"
     inkscape:guide-bbox="true" />
  <metadata
     id="metadata7">
    <rdf:RDF>
      <cc:Work
         rdf:about="">
        <dc:format>image/svg+xml</dc:format>
        <dc:type
           rdf:resource="http://purl.org/dc/dcmitype/StillImage" />
      </cc:Work>
    </rdf:RDF>
  </metadata>
  <g
     inkscape:label="Layer 1"
     inkscape:groupmode="layer"
     id="layer1">
    <g
       id="g6125">
      <g
         id="g6116">
        <path
           sodipodi:nodetypes="ccccccccccccc"
           id="path7186"
           d="M 212.14286,307.00504 L 216.25,313.61218 L 216.60714,318.07647 L 220.35715,319.68361 L 224.64285,317.71932 L 229.46429,318.61218 L 235.30484,317.06817 L 236.78571,326.29075 L 231.60714,325.21932 L 222.14286,328.07647 L 209.82143,324.50504 L 205.17857,316.6479 L 205,307.54075"
           style="fill:#ffc0ff;fill-rule:evenodd;stroke:#000000;stroke-width:0.5;stroke-linecap:butt;stroke-linejoin:bevel;stroke-opacity:1;stroke-miterlimit:4;stroke-dasharray:none;fill-opacity:1" />
        <path
           sodipodi:nodetypes="ccccc"
           id="path9128"
           d="M 236.69326,326.28309 L 235.28318,317.13897 L 237.54465,317.98718 L 239.01786,324.50504 L 236.69326,326.28309 z "
           style="fill:#404040;fill-rule:evenodd;stroke:#000000;stroke-width:0.5;stroke-linecap:butt;stroke-linejoin:bevel;stroke-opacity:1;fill-opacity:1;stroke-miterlimit:4;stroke-dasharray:none" />
      </g>
      <path
         sodipodi:nodetypes="ccccccccccccccc"
         id="path6120"
         d="M 204.7453,307.81663 L 208.15456,311.47843 L 208.91217,317.66561 L 213.07906,322.96892 L 224.44327,325.24176 L 231.76687,323.22145 L 236.43883,324.10534 L 238.58541,323.09519 L 239.09048,324.35788 L 236.69137,325.99937 L 231.51434,324.98922 L 222.17043,327.89341 L 209.79606,324.35788 L 204.99783,316.5292 L 204.7453,307.81663 z "
         style="fill:#000000;fill-opacity:0.25098039;fill-rule:evenodd;stroke:#000000;stroke-width:0;stroke-linecap:butt;stroke-linejoin:miter;stroke-miterlimit:4;stroke-dasharray:none;stroke-opacity:1" />
    </g>
    <g
       id="g14003"
       inkscape:export-filename="C:\dev\projects\4EV_Entry\graphics\pony.png"
       inkscape:export-xdpi="321.72"
       inkscape:export-ydpi="321.72">
      <path
         sodipodi:nodetypes="ccccc"
         id="path10105"
         d="M 218.97321,408.79075 L 218.97321,404.86218 L 228.08036,404.86218 L 229.50893,409.23718 L 218.97321,408.79075 z "
         style="fill:#404040;fill-rule:evenodd;stroke:#000000;stroke-width:0.5;stroke-linecap:butt;stroke-linejoin:miter;stroke-opacity:1;fill-opacity:1;stroke-miterlimit:4;stroke-dasharray:none" />
      <g
         id="g7102">
        <path
           style="fill:#ffc0ff;fill-opacity:1;fill-rule:evenodd;stroke:#000000;stroke-width:0.5;stroke-linecap:butt;stroke-linejoin:miter;stroke-miterlimit:4;stroke-dasharray:none;stroke-opacity:1"
           d="M 214.15233,351.06378 L 216.23392,364.41766 L 218.07565,370.97097 L 221.86372,379.1082 L 219.32039,392.41875 L 224.25386,403.33917 L 228.1682,404.8544 L 218.95056,404.8544 L 211.62695,390.71226 L 213.17281,381.54692 L 209.90251,375.26411 L 202.78812,366.72114 L 202.0305,352.32647"
           id="path3290"
           sodipodi:nodetypes="ccccccccccccc" />
        <path
           id="path6131"
           d="M 202.05357,352.45147 L 205.26786,355.13004 L 206.69643,367.8979 L 212.41071,374.68361 L 216.25,380.93361 L 213.48214,390.75504 L 220.53571,404.68361 L 221.33929,406.73718 L 224.46429,408.07647 L 229.46429,409.1479 L 219.01786,408.70147 L 219.01786,404.86218 L 211.60714,390.66575 L 213.03571,381.38004 L 209.91071,375.13004 L 202.76786,366.6479 L 202.05357,352.45147 z "
           style="fill:#000000;fill-rule:evenodd;stroke:#000000;stroke-width:0;stroke-linecap:butt;stroke-linejoin:miter;stroke-opacity:1;fill-opacity:0.25098041;stroke-miterlimit:4;stroke-dasharray:none" />
      </g>
      <g
         id="g13996">
        <path
           style="opacity:1;fill:#404040;fill-opacity:1;stroke:#000000;stroke-width:0.5;stroke-linecap:round;stroke-linejoin:round;stroke-miterlimit:4;stroke-dasharray:none;stroke-dashoffset:0;stroke-opacity:1"
           id="path13015"
           d="M 191.309,359.27094 C 190.6564,360.1141 190.0975,361.02059 189.46016,361.87591 C 188.63346,362.95944 187.6754,363.92295 186.68799,364.8572 C 185.86351,365.61371 185.10126,366.43307 184.34251,367.25405 C 183.7682,367.88142 183.38663,368.63834 182.99133,369.38244 C 182.31019,370.51556 181.7059,371.68648 181.12649,372.87399 C 180.39652,374.19603 179.92913,375.62535 179.51479,377.07039 C 179.07057,378.77137 178.83155,380.51466 178.59421,382.25359 C 178.37626,383.66027 178.32864,385.08192 178.29455,386.50207 C 178.2938,386.65054 178.29304,386.79901 178.29229,386.94747 L 176.00336,388.10668 C 176.00998,387.95433 176.0166,387.80197 176.02322,387.64961 C 176.09446,386.21276 176.18552,384.7735 176.37011,383.34658 C 176.64043,381.60138 176.86554,379.84336 177.29343,378.12786 C 177.682,376.66365 178.09597,375.21001 178.87615,373.89585 C 179.43549,372.72532 179.97615,371.54646 180.6501,370.43525 C 181.04203,369.67404 181.41528,368.89637 181.98374,368.24616 C 182.75585,367.41485 183.52504,366.57647 184.36415,365.81122 C 185.35294,364.88965 186.31832,363.94312 187.15006,362.87289 C 187.76356,362.04177 188.34007,361.19291 188.87726,360.30988 L 191.309,359.27094 z " />
        <path
           style="opacity:1;fill:#404040;fill-opacity:1;stroke:#000000;stroke-width:0.5;stroke-linecap:round;stroke-linejoin:round;stroke-miterlimit:4;stroke-dasharray:none;stroke-dashoffset:0;stroke-opacity:1"
           id="path13017"
           d="M 191.29884,361.2409 C 189.37233,362.81964 187.94766,364.82012 186.68147,366.94048 C 185.24281,369.40031 184.65795,372.13443 184.38033,374.93405 C 184.2247,376.61579 184.23382,378.28452 184.56698,379.94042 C 184.88927,381.20737 185.49341,382.38032 186.08094,383.54136 C 186.26894,383.91895 186.46431,384.2928 186.65868,384.66714 L 184.40741,385.94511 C 184.22802,385.56317 184.0498,385.18067 183.87225,384.79785 C 183.29427,383.60546 182.72054,382.3975 182.36808,381.11628 C 182.02589,379.40937 182.02999,377.71859 182.25513,375.98902 C 182.57045,373.14399 183.14329,370.3551 184.62112,367.85582 C 185.80839,365.80618 187.12083,363.86916 188.8447,362.22577 L 191.29884,361.2409 z " />
        <path
           style="opacity:1;fill:#404040;fill-opacity:1;stroke:#000000;stroke-width:0.5;stroke-linecap:round;stroke-linejoin:round;stroke-miterlimit:4;stroke-dasharray:none;stroke-dashoffset:0;stroke-opacity:1"
           id="path13021"
           d="M 192.19533,356.24693 C 191.34028,357.1993 190.5727,358.22665 189.81766,359.25899 C 189.00742,360.42505 188.1888,361.58785 187.48784,362.82391 C 186.98574,363.81783 186.38703,364.75302 185.77923,365.68426 C 185.30143,366.38263 184.9338,367.14293 184.57273,367.90508 C 184.26342,368.43774 183.99266,368.98677 183.73497,369.54592 C 183.41803,370.18052 183.14729,370.83609 182.88148,371.49305 C 182.59059,372.21416 182.46482,372.97186 182.34329,373.73406 C 182.22415,374.91732 182.00092,376.08506 181.85945,377.26592 C 181.7267,378.6985 181.71566,380.13503 181.5696,381.56623 C 181.25134,383.54459 180.6706,385.47239 180.24063,387.43025 L 178.12111,388.45431 C 178.52459,386.53317 179.0093,384.62655 179.31159,382.68562 C 179.48229,381.25002 179.51898,379.80619 179.64489,378.36624 C 179.74197,377.19528 179.91419,376.03456 180.04611,374.86733 C 180.15017,374.09529 180.24019,373.31677 180.52683,372.58563 C 180.79461,371.9281 181.0635,371.27006 181.3631,370.62622 C 181.62595,370.06593 181.86631,369.49519 182.21555,368.98071 C 182.59174,368.19927 182.95568,367.40972 183.46168,366.69998 C 184.07288,365.77792 184.66094,364.84103 185.1732,363.85973 C 185.86291,362.57738 186.77108,361.4336 187.58199,360.22753 C 188.28517,359.23621 188.9652,358.20985 189.77665,357.30518 L 192.19533,356.24693 z " />
        <path
           style="opacity:1;fill:#404040;fill-opacity:1;stroke:#000000;stroke-width:0.5;stroke-linecap:round;stroke-linejoin:round;stroke-miterlimit:4;stroke-dasharray:none;stroke-dashoffset:0;stroke-opacity:1"
           id="path13023"
           d="M 187.13921,363.65287 C 185.61595,366.17644 184.50223,368.91509 183.46332,371.66474 C 182.64596,374.04267 182.06324,376.49359 181.59291,378.96132 C 181.32076,379.98023 181.39364,380.94356 181.5853,381.9573 C 181.88506,382.99975 182.40027,383.96005 182.88012,384.9274 C 183.21347,385.55198 183.63928,386.12157 184.0272,386.71309 C 184.05547,386.70403 184.29426,387.22665 184.30524,387.24776 L 182.03292,388.53036 C 181.95047,388.35967 181.89673,388.1752 181.78556,388.01829 C 181.3913,387.41915 180.94884,386.84527 180.66461,386.18162 C 180.20179,385.18722 179.64676,384.22267 179.33239,383.16955 C 179.10931,382.10482 179.01733,381.10706 179.35844,380.04203 C 179.93592,377.53103 180.64025,375.05038 181.44665,372.60328 C 182.43084,369.92344 183.5276,367.29399 184.74732,364.71299 L 187.13921,363.65287 z " />
        <path
           style="opacity:1;fill:#404040;fill-opacity:1;stroke:#000000;stroke-width:0.5;stroke-linecap:round;stroke-linejoin:round;stroke-miterlimit:4;stroke-dasharray:none;stroke-dashoffset:0;stroke-opacity:1"
           id="path13025"
           d="M 192.75378,356.40057 C 191.73186,357.39458 191.05823,358.68088 190.38926,359.92434 C 189.44688,361.72233 188.60574,363.56868 187.8185,365.43893 C 187.23267,366.76337 186.85397,368.14391 186.63812,369.57191 C 186.42246,371.18315 186.49678,372.80437 186.69619,374.41161 C 186.86537,375.92344 187.07377,377.43034 187.26037,378.93996 C 187.35734,379.53987 187.36111,380.14579 187.37857,380.75108 L 185.10327,381.91781 C 185.07838,381.31666 185.05966,380.71509 185.0115,380.11514 C 184.88439,378.59088 184.70456,377.07194 184.51879,375.55387 C 184.3324,373.93333 184.17073,372.30179 184.39575,370.67533 C 184.5853,369.21506 184.96159,367.79982 185.59155,366.4631 C 186.39808,364.58311 187.25044,362.72106 188.1998,360.90866 C 188.83345,359.69494 189.447,358.46486 190.28962,357.38053 L 192.75378,356.40057 z " />
      </g>
      <path
         sodipodi:nodetypes="ccccccccccccccccccccccccc"
         id="path2251"
         d="M 220.97951,296.54637 C 220.97951,296.54637 230.53199,295.54519 230.53199,295.54519 L 235.83683,298.5159 L 240.47969,297.44448 L 242.2654,290.65876 L 229.40826,282.44448 L 220.12255,272.44448 L 213.33683,271.01591 L 208.33683,268.15876 L 209.7654,272.08733 L 201.19398,276.37305 L 193.69398,284.94448 L 191.17231,302.82329 L 192.30181,326.85369 L 191.54937,346.63938 L 196.42947,367.97402 L 205.69977,367.10417 L 212.85664,358.05016 L 215.31126,346.34056 L 218.46892,332.4053 L 219.71411,322.11533 L 218.90419,307.92602 L 214.80502,303.32836 L 213.69398,296.01591 L 220.97951,296.54637 z "
         style="fill:#ffc0ff;fill-rule:evenodd;stroke:#000000;stroke-width:0.5;stroke-linecap:butt;stroke-linejoin:miter;stroke-opacity:1;fill-opacity:1;stroke-miterlimit:4;stroke-dasharray:none" />
      <path
         sodipodi:nodetypes="ccccccccccccccc"
         id="path3286"
         d="M 197.9899,307.87976 L 196.66222,316.58861 L 200.12007,323.27189 L 202.03948,327.22956 L 209.80689,328.67083 L 219.28976,330.08144 L 225.86473,328.55725 L 230.94612,328.96669 L 229.55717,319.24397 L 223.36998,321.13801 L 216.93026,320.8765 L 211.16466,321.71334 L 207.49071,320.22874 L 207.85663,316.1121 L 207.08127,311.41529"
         style="fill:#ffc0ff;fill-rule:evenodd;stroke:#000000;stroke-width:0.5;stroke-linecap:butt;stroke-linejoin:bevel;stroke-opacity:1;stroke-miterlimit:4;stroke-dasharray:none;fill-opacity:1" />
      <path
         sodipodi:nodetypes="ccccccccccccccc"
         id="path3288"
         d="M 191.55018,346.64436 L 189.27733,361.03903 L 192.05525,368.61517 L 195.08571,375.18116 L 195.84333,383.26239 L 193.31794,392.6063 L 195.59078,403.46544 L 196.34841,407.00097 L 205.28194,406.5906 L 201.90424,404.47559 L 200.67218,394.94041 L 205.43978,380.98954 L 205.21787,372.53849 L 203.73328,367.13058 L 203.67201,361.79665"
         style="fill:#ffc0ff;fill-opacity:1;fill-rule:evenodd;stroke:#000000;stroke-width:0.5;stroke-linecap:butt;stroke-linejoin:bevel;stroke-miterlimit:4;stroke-dasharray:none;stroke-opacity:1" />
      <path
         sodipodi:nodetypes="ccccc"
         id="path8157"
         d="M 230.88744,329.00631 L 229.55357,319.32647 L 232.67857,320.21932 L 234.0625,327.04968 L 230.88744,329.00631 z "
         style="fill:#404040;fill-rule:evenodd;stroke:#000000;stroke-width:0.5;stroke-linecap:butt;stroke-linejoin:bevel;stroke-opacity:1;stroke-miterlimit:4;stroke-dasharray:none;fill-opacity:1" />
      <path
         sodipodi:nodetypes="ccccc"
         id="path10103"
         d="M 205.22322,406.6479 L 196.33929,407.04968 L 195.3125,410.84432 L 205.84821,410.88897 L 205.22322,406.6479 z "
         style="fill:#404040;fill-rule:evenodd;stroke:#000000;stroke-width:0.5;stroke-linecap:butt;stroke-linejoin:miter;stroke-opacity:1;stroke-miterlimit:4;stroke-dasharray:none;fill-opacity:1" />
      <path
         style="fill:#000000;fill-rule:evenodd;stroke:#000000;stroke-width:0;stroke-linecap:butt;stroke-linejoin:miter;stroke-opacity:1;fill-opacity:0.25098041;stroke-miterlimit:4;stroke-dasharray:none"
         d="M 203.83929,361.91575 L 207.85715,359.41575 L 211.85969,353.35019 L 215,346.73718 L 212.94643,358.16575 L 205.625,367.00504 L 203.48214,367.2729 L 203.83929,361.91575 z "
         id="path7106"
         sodipodi:nodetypes="cccccccc" />
      <path
         style="fill:#000000;fill-rule:evenodd;stroke:#000000;stroke-width:0;stroke-linecap:butt;stroke-linejoin:miter;stroke-opacity:1;fill-opacity:0.25098041;stroke-miterlimit:4;stroke-dasharray:none"
         d="M 214.73214,303.43361 L 219.20499,308.10108 L 219.12002,310.4766 L 217.5632,308.18367 L 214.11066,305.08531 L 212.41072,301.29076 L 211.96429,295.84432 L 213.57415,294.22034 L 219.28572,295.13005 L 230.35714,294.23718 L 235.98214,296.11218 L 240.625,295.66575 L 240.44643,297.36218 L 235.71429,298.5229 L 230.625,295.3979 L 221.07143,296.46932 L 213.57143,295.84432 L 214.73214,303.43361 z "
         id="path8077"
         sodipodi:nodetypes="cccccccccccccccccc" />
      <path
         style="fill:none;fill-rule:evenodd;stroke:#000000;stroke-width:0.5;stroke-linecap:round;stroke-linejoin:round;stroke-opacity:1;stroke-miterlimit:4;stroke-dasharray:none"
         d="M 240.35714,297.45147 L 235.89286,296.11218 L 230.17857,293.88004"
         id="path9048" />
    </g>
    <path
       style="fill:url(#radialGradient3161);fill-rule:evenodd;stroke:#000000;stroke-width:0.5;stroke-linecap:butt;stroke-linejoin:miter;stroke-opacity:1;fill-opacity:1.0;stroke-miterlimit:4;stroke-dasharray:none"
       d="M 225.80357,283.07647 C 226.52928,282.14111 224.89937,280.20945 222.94643,279.05861 C 219.19643,276.84879 219.17678,276.82477 216.51786,278.61218 C 211.66697,281.87311 224.79911,284.37111 225.80357,283.07647 z "
       id="path2181"
       sodipodi:nodetypes="csss" />
    <path
       style="fill:#000000;fill-rule:evenodd;stroke:#000000;stroke-width:0;stroke-linecap:butt;stroke-linejoin:miter;stroke-opacity:1;stroke-miterlimit:4;stroke-dasharray:none;fill-opacity:0.25098041"
       d="M 198.36871,307.87976 L 200.64155,312.80425 L 200.51528,318.99143 L 203.79828,325.05235 L 219.2031,326.82012 L 225.64282,325.93623 L 230.31478,326.82012 L 233.59778,325.6837 L 234.10285,326.94639 L 230.69359,328.96669 L 225.51656,328.20908 L 219.45564,329.97684 L 201.90424,327.07266 L 196.60094,316.21352 L 198.36871,307.87976 z "
       id="path3203" />
    <path
       style="fill:#000000;fill-rule:evenodd;stroke:#000000;stroke-width:0;stroke-linecap:butt;stroke-linejoin:miter;stroke-opacity:1;stroke-miterlimit:4;stroke-dasharray:none;fill-opacity:0.25098041"
       d="M 189.28571,360.81817 L 191.5584,346.78305 L 192.41112,326.95978 L 191.92477,317.98118 L 190.83083,303.34593 L 193.43176,284.71666 L 201.17031,276.21587 L 209.73778,272.00517 L 202.37796,277.85526 L 196.5684,287.41511 L 193.35905,305.98133 L 195.59333,326.94658 L 195.56444,346.01425 L 195.35714,362.8979 L 196.96429,371.11218 L 198.75,375.93361 L 198.92857,381.29075 L 195.35714,393.43361 L 198.03571,406.82647 L 198.39286,408.43361 L 201.42857,410.04075 L 205.89286,410.75504 L 195.35714,410.75504 L 196.42857,406.6479 L 193.21429,392.71933 L 195.71429,382.71933 L 195,375.04075 L 192.13429,368.69722 L 189.28571,360.81817 z "
       id="path3205"
       sodipodi:nodetypes="ccccccccccccccccccccccccccccc" />
    <path
       style="fill:#000000;fill-opacity:0.25098039;fill-rule:evenodd;stroke:#000000;stroke-width:0;stroke-linecap:butt;stroke-linejoin:miter;stroke-miterlimit:4;stroke-dasharray:none;stroke-opacity:1"
       d="M 209.85919,272.01934 L 211.24815,272.14561 L 208.72277,268.48381 L 209.85919,272.01934 z "
       id="path5145" />
  </g>
</svg>
