<?xml version="1.0" encoding="UTF-8" standalone="no"?>
<!-- Created with Inkscape (http://www.inkscape.org/) -->
<svg
   xmlns:dc="http://purl.org/dc/elements/1.1/"
   xmlns:cc="http://web.resource.org/cc/"
   xmlns:rdf="http://www.w3.org/1999/02/22-rdf-syntax-ns#"
   xmlns:svg="http://www.w3.org/2000/svg"
   xmlns="http://www.w3.org/2000/svg"
   xmlns:sodipodi="http://sodipodi.sourceforge.net/DTD/sodipodi-0.dtd"
   xmlns:inkscape="http://www.inkscape.org/namespaces/inkscape"
   width="744.09448819"
   height="1052.3622047"
   id="svg2"
   sodipodi:version="0.32"
   inkscape:version="0.45.1"
   sodipodi:docbase="C:\dev\projects\4EV_Entry"
   sodipodi:docname="drawing.svg"
   inkscape:output_extension="org.inkscape.output.svg.inkscape">
  <defs
     id="defs4" />
  <sodipodi:namedview
     id="base"
     pagecolor="#ffffff"
     bordercolor="#666666"
     borderopacity="1.0"
     gridtolerance="10000"
     guidetolerance="10"
     objecttolerance="10"
     inkscape:pageopacity="0.0"
     inkscape:pageshadow="2"
     inkscape:zoom="7.9195959"
     inkscape:cx="240.13709"
     inkscape:cy="758.4241"
     inkscape:document-units="px"
     inkscape:current-layer="layer1"
     inkscape:window-width="1024"
     inkscape:window-height="720"
     inkscape:window-x="-4"
     inkscape:window-y="-4" />
  <metadata
     id="metadata7">
    <rdf:RDF>
      <cc:Work
         rdf:about="">
        <dc:format>image/svg+xml</dc:format>
        <dc:type
           rdf:resource="http://purl.org/dc/dcmitype/StillImage" />
      </cc:Work>
    </rdf:RDF>
  </metadata>
  <g
     inkscape:label="Layer 1"
     inkscape:groupmode="layer"
     id="layer1">
    <path
       style="fill:#ffc0ff;fill-opacity:1;fill-rule:evenodd;stroke:#000000;stroke-width:0.5;stroke-linecap:butt;stroke-linejoin:miter;stroke-miterlimit:4;stroke-dasharray:none;stroke-opacity:1"
       d="M 214.15233,351.06378 L 215.16249,364.95337 L 217.18279,370.25668 L 220.97086,380.3582 L 220.21325,393.49018 L 224.25386,403.33917 L 228.04193,404.8544 L 229.55716,409.40009 L 218.95056,408.89501 L 218.95056,404.8544 L 211.62695,390.71226 L 212.6371,381.36835 L 210.6168,374.54982 L 202.78812,366.72114 L 202.0305,352.32647"
       id="path3290" />
    <path
       style="fill:#ffc0ff;fill-rule:evenodd;stroke:#000000;stroke-width:0.5;stroke-linecap:butt;stroke-linejoin:miter;stroke-opacity:1;fill-opacity:1;stroke-miterlimit:4;stroke-dasharray:none"
       d="M 220.08665,295.83208 C 220.08665,295.83208 228.92485,293.5809 228.92485,293.5809 L 234.40826,297.08733 L 240.47969,297.44448 L 242.2654,290.65876 L 229.40826,282.44448 L 220.12255,272.44448 L 213.33683,271.01591 L 208.33683,268.15876 L 209.7654,272.08733 L 201.19398,276.37305 L 193.69398,284.94448 L 191.17231,302.82329 L 192.30181,326.85369 L 191.54937,346.63938 L 196.42947,367.97402 L 205.69977,367.10417 L 212.85664,358.05016 L 215.31126,346.34056 L 218.46892,332.4053 L 219.71411,322.11533 L 218.90419,307.92602 L 214.80502,303.32836 L 213.69398,296.01591 L 220.08665,295.83208 z "
       id="path2251"
       sodipodi:nodetypes="ccccccccccccccccccccccccc" />
    <path
       style="fill:#ffc0ff;fill-rule:evenodd;stroke:#000000;stroke-width:0.5;stroke-linecap:butt;stroke-linejoin:miter;stroke-opacity:1;stroke-miterlimit:4;stroke-dasharray:none;fill-opacity:1"
       d="M 197.9899,307.87976 L 195.59079,314.44575 L 196.72721,322.02189 L 201.14662,326.69385 L 209.98546,327.95654 L 220.71833,329.7243 L 226.40044,329.09296 L 230.94612,328.96669 L 234.10286,327.07265 L 232.71389,320.25413 L 229.55717,319.24397 L 223.36998,321.13801 L 216.93026,321.76936 L 210.2718,320.64191 L 206.955,317.72874 L 207.08127,311.41529"
       id="path3286"
       sodipodi:nodetypes="cccccccccccccccc" />
    <path
       style="fill:#ffc0ff;fill-opacity:1;fill-rule:evenodd;stroke:#000000;stroke-width:0.5;stroke-linecap:butt;stroke-linejoin:miter;stroke-miterlimit:4;stroke-dasharray:none;stroke-opacity:1"
       d="M 191.55018,346.64436 L 189.27733,361.03903 L 192.05525,368.61517 L 195.08571,375.18116 L 195.84333,383.26239 L 193.31794,392.6063 L 195.59078,403.46544 L 196.34841,407.00097 L 195.33825,411.04158 L 205.94485,411.04158 L 205.18724,406.49589 L 201.90424,404.47559 L 200.13647,393.86898 L 205.43978,380.98954 L 204.68216,371.64563 L 202.66185,366.59487 L 203.67201,361.79665"
       id="path3288"
       sodipodi:nodetypes="ccccccccccccccccc" />
  </g>
</svg>
